<svg width="900" height="563" xmlns="http://www.w3.org/2000/svg" xml:space="preserve" version="1.1">
 <defs>
  <linearGradient y2="0.5" x2="1" y1="0.5" x1="0" id="SVGID_1_">
   <stop stop-color="#7F00FF" offset="0"/>
   <stop stop-color="#7C00FF" offset="0.2752"/>
   <stop stop-color="#7200FF" offset="0.4903"/>
   <stop stop-color="#6100FF" offset="0.6852"/>
   <stop stop-color="#4A00FF" offset="0.867"/>
   <stop stop-color="#3400FF" offset="1"/>
  </linearGradient>
 </defs>
 <g>
  <title>Layer 1</title>
  <rect id="svg_1" fill="url(#SVGID_1_)" height="563" width="900" class="st0"/>
  <g>
   <path stroke="#e4761b" fill="#e4761b" d="m623.58849,364.2111l-25.25102,85.37743l-49.57065,-13.5569l74.82167,-71.82053z" class="st0"/>
   <path stroke="#e4761b" fill="#e4761b" d="m548.76682,436.03163l47.81136,-65.50777l27.01031,-6.31276l-74.82167,71.82053z" class="st0"/>
   <path stroke="#f6851b" fill="#f6851b" d="m586.43637,299.84169l37.15212,64.36941l-27.01031,6.31276l-10.1418,-70.68216zm0,0l23.90568,-16.55805l13.24644,80.92745l-37.15212,-64.36941z" class="st1"/>
   <path stroke="#763d16" fill="#763d16" d="m556.01096,251.20243l68.71589,-28.14868l-3.4151,15.41968l-65.3008,12.729zm63.12755,5.79532l-63.12755,-5.79532l65.3008,-12.729l-2.17324,18.52431z" class="st2"/>
   <path stroke="#763d16" fill="#763d16" d="m619.13851,256.99775l-8.79646,26.2859l-54.33109,-32.08121l63.12755,5.79532zm13.76388,-27.42426l-11.59063,8.89995l3.4151,-15.41968l8.17554,6.51973zm-13.76388,27.42426l2.17324,-18.52431l9.21041,7.6581l-11.38366,10.86622z" class="st2"/>
   <path stroke="#e2761b" fill="#e2761b" d="m495.4706,415.23058l17.17897,5.48485l36.11724,15.31619l-53.29621,-20.80105z" class="st3"/>
   <path stroke="#763d16" fill="#763d16" d="m610.34205,283.28365l8.79646,-26.2859l7.55461,5.79532l-16.35107,20.49058zm0,0l-71.30309,-23.49173l16.972,-8.58949l54.33109,32.08121z" class="st2"/>
   <path stroke="#763d16" fill="#763d16" d="m572.98296,170.58544l-16.972,80.61699l-16.972,8.58949l33.94399,-89.20647z" class="st2"/>
   <path stroke="#763d16" fill="#763d16" d="m624.72685,223.05375l-68.71589,28.14868l16.972,-80.61699l51.74389,52.46831z" class="st2"/>
   <path stroke="#763d16" fill="#763d16" d="m572.98296,170.58544l71.71704,-8.27902l-19.97314,60.74733l-51.74389,-52.46831z" class="st2"/>
   <path stroke="#f6851b" fill="#f6851b" d="m610.34205,283.28365l-23.90568,16.55805l-47.39741,-40.04977l71.30309,23.49173z" class="st1"/>
   <path stroke="#763d16" fill="#763d16" d="m641.59536,104.24977l3.10463,58.05665l-71.71704,8.27902l68.6124,-66.33567z" class="st2"/>
   <path stroke="#e2761b" fill="#e2761b" d="m641.59536,104.24977l-143.33059,104.2122l-1.86278,-70.68216l145.19337,-33.53004z" class="st3"/>
   <path stroke="#f6851b" fill="#f6851b" d="m389.80957,129.29382l106.59242,8.486l1.86278,70.68216l-108.4552,-79.16816z" class="st1"/>
   <path stroke="#763d16" fill="#763d16" d="m539.03896,259.79192l-40.77419,-51.32994l74.71818,-37.87653l-33.94399,89.20647z" class="st2"/>
   <path stroke="#e4761b" fill="#e4761b" d="m539.03896,259.79192l47.39741,40.04977l-66.54265,7.34763l19.14524,-47.39741z" class="st0"/>
   <path stroke="#e4761b" fill="#e4761b" d="m519.89372,307.18933l-21.62895,-98.72735l40.77419,51.32994l-19.14524,47.39741z" class="st0"/>
   <path stroke="#763d16" fill="#763d16" d="m572.98296,170.58544l-74.71818,37.87653l143.33059,-104.2122l-68.6124,66.33567z" class="st2"/>
   <path stroke="#c0ad9e" fill="#c0ad9e" d="m390.74096,434.37582l33.84051,35.28934l-46.05207,-41.91255l12.21156,6.62322z" class="st4"/>
   <path stroke="#cd6116" fill="#cd6116" d="m548.76682,436.03163l16.04061,-60.95431l31.77075,-4.55346l-47.81136,65.50777z" class="st5"/>
   <path stroke="#e2761b" fill="#e2761b" d="m253.51615,264.55236l58.57409,-61.57523l-51.01948,54.2276l-7.55461,7.34763z" class="st3"/>
   <path stroke="#f6851b" fill="#f6851b" d="m596.57817,370.52385l-31.77075,4.55346l21.62895,-75.23562l10.1418,70.68216zm-98.3134,-162.06188l-57.02177,-1.86278l-51.43343,-77.30538l108.4552,79.16816z" class="st1"/>
   <path stroke="#e4751f" fill="#e4751f" d="m586.43637,299.84169l-21.62895,75.23562l-1.75929,-36.73817l23.38824,-38.49746z" class="st6"/>
   <path stroke="#cd6116" fill="#cd6116" d="m519.89372,307.18933l66.54265,-7.34763l-23.38824,38.49746l-43.15441,-31.14982z" class="st5"/>
   <path stroke="#f6851b" fill="#f6851b" d="m441.243,206.5992l57.02177,1.86278l21.62895,98.72735l-78.65072,-100.59013z" class="st1"/>
   <path stroke="#e4761b" fill="#e4761b" d="m441.243,206.5992l-153.88634,-142.3992l102.45291,65.09382l51.43343,77.30538zm-51.53692,249.40557l-133.70622,41.39512l-26.69985,-101.93547l160.40607,60.54036z" class="st0"/>
   <path stroke="#763d16" fill="#763d16" d="m273.38581,290.01035l50.50204,-39.63582l42.32651,9.83134l-92.82855,29.80448z" class="st2"/>
   <path stroke="#763d16" fill="#763d16" d="m366.21435,260.20587l-42.32651,-9.83134l22.66383,-93.55296l19.66268,103.3843z" class="st2"/>
   <path stroke="#763d16" fill="#763d16" d="m261.07076,257.20472l62.81709,-6.83019l-50.50204,39.63582l-12.31505,-32.80563z" class="st2"/>
   <path stroke="#cd6116" fill="#cd6116" d="m563.04813,338.33915l-26.07892,-13.14295l-17.07549,-18.00688l43.15441,31.14982z" class="st5"/>
   <path stroke="#763d16" fill="#763d16" d="m261.07076,257.20472l-4.44997,-23.49173l67.26706,16.66153l-62.81709,6.83019z" class="st2"/>
   <path stroke="#233447" fill="#233447" d="m531.58784,354.79371l5.38137,-29.59751l26.07892,13.14295l-31.46029,16.45456z" class="st7"/>
   <path stroke="#f6851b" fill="#f6851b" d="m564.80742,375.07732l-33.21958,-20.28361l31.46029,-16.45456l1.75929,36.73817z" class="st1"/>
   <path stroke="#763d16" fill="#763d16" d="m323.88785,250.37453l-67.26706,-16.66153l-5.48485,-19.76617l72.75192,36.4277zm22.66383,-93.55296l-22.66383,93.55296l-72.75192,-36.4277l95.41574,-57.12526zm0,0l94.69133,49.77763l-75.02865,53.60668l-19.66268,-103.3843z" class="st2"/>
   <path stroke="#e4761b" fill="#e4761b" d="m366.21435,260.20587l75.02865,-53.60668l33.42656,102.14245l-108.4552,-48.53577zm108.4552,48.53577l-103.69477,-2.17324l-4.76044,-46.36253l108.4552,48.53577z" class="st0"/>
   <path stroke="#f6851b" fill="#f6851b" d="m273.38581,290.01035l92.82855,-29.80448l4.76044,46.36253l-97.58899,-16.55805zm246.50791,17.17897l-45.22416,1.55232l-33.42656,-102.14245l78.65072,100.59013z" class="st1"/>
   <path stroke="#cd6116" fill="#cd6116" d="m536.96921,325.1962l-5.38137,29.59751l-11.69412,-47.60438l17.07549,18.00688z" class="st5"/>
   <path stroke="#763d16" fill="#763d16" d="m287.35666,64.2l153.88634,142.3992l-94.69133,-49.77763l-59.19502,-92.62157z" class="st2"/>
   <path stroke="#e4761b" fill="#e4761b" d="m229.30001,395.46441l129.77369,-5.38137l30.63239,65.92172l-160.40607,-60.54036z" class="st0"/>
   <path stroke="#cd6116" fill="#cd6116" d="m389.70608,456.00477l-30.63239,-65.92172l63.74848,-3.10463l-33.11609,69.02636z" class="st5"/>
   <path stroke="#f6851b" fill="#f6851b" d="m531.58784,354.79371l33.21958,20.28361l18.31734,43.15441l-51.53692,-63.43802zm-160.61305,-48.22531l-141.67478,88.89601l44.0858,-105.45406l97.58899,16.55805zm-11.9011,83.51465l-129.77369,5.38137l141.67478,-88.89601l-11.9011,83.51465zm160.82003,-82.89372l8.486,30.83936l-40.98116,2.38022l32.49517,-33.21958zm-32.49517,33.21958l-12.729,-31.66726l45.22416,-1.55232l-32.49517,33.21958z" class="st1"/>
   <path stroke="#c0ad9e" fill="#c0ad9e" d="m424.58147,469.66516l-34.87539,-13.66039l121.28769,20.38709l-86.4123,-6.72671z" class="st4"/>
   <path stroke="#763d16" fill="#763d16" d="m273.38581,290.01035l-19.86966,-25.458l7.55461,-7.34763l12.31505,32.80563z" class="st2"/>
   <path stroke="#d7c1b3" fill="#d7c1b3" d="m524.75765,461.28265l-13.76388,15.10922l-121.28769,-20.38709l135.05157,5.27788z" class="st8"/>
   <path stroke="#e4761b" fill="#e4761b" d="m531.27738,424.23402l-141.5713,31.77075l33.11609,-69.02636l108.4552,37.2556z" class="st0"/>
   <path stroke="#d7c1b3" fill="#d7c1b3" d="m389.70608,456.00477l141.5713,-31.77075l-6.51973,37.04863l-135.05157,-5.27788z" class="st8"/>
   <path stroke="#763d16" fill="#763d16" d="m251.13593,213.94683l-4.65695,-79.58211l100.07269,22.45685l-95.41574,57.12526zm9.93483,43.2579l-13.76388,-13.97085l9.3139,-9.52088l4.44997,23.49173z" class="st2"/>
   <path stroke="#cd6116" fill="#cd6116" d="m451.48829,329.23223l23.18126,-20.49058l-3.31161,50.08809l-19.86966,-29.59751z" class="st5"/>
   <path stroke="#cd6116" fill="#cd6116" d="m474.66956,308.74164l-23.18126,20.49058l-33.73702,17.48944l56.91828,-37.98002z" class="st5"/>
   <path stroke="#f6851b" fill="#f6851b" d="m583.12476,418.23173l-6.31276,-4.65695l-45.22416,-58.78106l51.53692,63.43802z" class="st1"/>
   <path stroke="#cd6116" fill="#cd6116" d="m417.75127,346.72166l-46.77648,-40.15326l103.69477,2.17324l-56.91828,37.98002z" class="st5"/>
   <path stroke="#e4751f" fill="#e4751f" d="m471.35795,358.82973l3.31161,-50.08809l12.729,31.66726l-16.04061,18.42083z" class="st6"/>
   <path stroke="#763d16" fill="#763d16" d="m242.75342,221.8119l8.38251,-7.86507l5.48485,19.76617l-13.86736,-11.9011z" class="st2"/>
   <path stroke="#233447" fill="#233447" d="m471.35795,358.82973l-53.60668,-12.10807l33.73702,-17.48944l19.86966,29.59751z" class="st7"/>
   <path stroke="#763d16" fill="#763d16" d="m346.55167,156.82157l-100.07269,-22.45685l40.87768,-70.16472l59.19502,92.62157z" class="st2"/>
   <path stroke="#c0ad9e" fill="#c0ad9e" d="m510.99377,476.39186l5.69183,15.52317l-92.10413,-22.24987l86.4123,6.72671z" class="st4"/>
   <path stroke="#f6851b" fill="#f6851b" d="m422.82218,386.97841l-5.0709,-40.25675l53.60668,12.10807l-48.53577,28.14868z" class="st1"/>
   <path stroke="#e4751f" fill="#e4751f" d="m370.97479,306.5684l46.77648,40.15326l5.0709,40.25675l-51.84738,-80.41001z" class="st6"/>
   <path stroke="#f6851b" fill="#f6851b" d="m487.39856,340.40891l40.98116,-2.38022l48.43229,75.54609l-89.41345,-73.16587zm-116.42376,-33.84051l51.84738,80.41001l-63.74848,3.10463l11.9011,-83.51465z" class="st1"/>
   <path stroke="#e4751f" fill="#e4751f" d="m487.39856,340.40891l50.91599,77.51235l-66.9566,-59.09153l16.04061,-18.42083z" class="st6"/>
   <path stroke="#f6851b" fill="#f6851b" d="m471.35795,358.82973l66.9566,59.09153l-7.03717,6.31276l-59.91943,-65.40428z" class="st1"/>
   <path stroke="#f6851b" fill="#f6851b" d="m531.27738,424.23402l-108.4552,-37.2556l48.53577,-28.14868l59.91943,65.40428zm45.53463,-10.65924l-38.49746,4.34649l-50.91599,-77.51235l89.41345,73.16587z" class="st1"/>
   <path stroke="#c0ad9e" fill="#c0ad9e" d="m586.95381,450.00248l-16.55805,33.21958l-53.71016,8.69297l70.26821,-41.91255zm-70.26821,41.91255l-5.69183,-15.52317l13.76388,-15.10922l-8.07205,30.63239z" class="st4"/>
   <path stroke="#c0ad9e" fill="#c0ad9e" d="m524.75765,461.28265l10.1418,-4.03602l-18.21385,34.66841l8.07205,-30.63239zm-8.07205,30.63239l18.21385,-34.66841l52.05436,-7.24415l-70.26821,41.91255z" class="st4"/>
   <path stroke="#161616" fill="#161616" d="m576.81201,413.57477l12.729,7.76158l-38.70443,4.65695l25.97544,-12.41853z" class="st9"/>
   <path stroke="#161616" fill="#161616" d="m550.83657,425.99331l-12.52202,-8.07205l38.49746,-4.34649l-25.97544,12.41853zm-4.44997,6.10578l47.08694,-5.69183l-6.51973,23.59522l-40.56721,-17.90339z" class="st9"/>
   <path stroke="#161616" fill="#161616" d="m586.95381,450.00248l-52.05436,7.24415l11.48714,-25.14753l40.56721,17.90339zm-52.05436,7.24415l-10.1418,4.03602l6.51973,-37.04863l3.62207,33.0126zm-3.62207,-33.0126l7.03717,-6.31276l12.52202,8.07205l-19.55919,-1.75929zm58.26363,-2.89766l3.93254,5.0709l-47.08694,5.69183l43.15441,-10.76273z" class="st9"/>
   <path stroke="#161616" fill="#161616" d="m546.3866,432.09909l4.44997,-6.10578l38.70443,-4.65695l-43.15441,10.76273zm-15.10922,-7.86507l15.10922,7.86507l-11.48714,25.14753l-3.62207,-33.0126z" class="st9"/>
   <path stroke="#161616" fill="#161616" d="m550.83657,425.99331l-4.44997,6.10578l-15.10922,-7.86507l19.55919,1.75929z" class="st9"/>
  </g>
 </g>
</svg>