<svg width="900" height="563" xmlns="http://www.w3.org/2000/svg" version="1.1" xml:space="preserve">
 <defs>
  <linearGradient id="SVGID_1_" x1="0" y1="0.5" x2="1" y2="0.5">
   <stop offset="0" stop-color="#7F00FF"/>
   <stop offset="0.2752" stop-color="#7C00FF"/>
   <stop offset="0.4903" stop-color="#7200FF"/>
   <stop offset="0.6852" stop-color="#6100FF"/>
   <stop offset="0.867" stop-color="#4A00FF"/>
   <stop offset="1" stop-color="#3400FF"/>
  </linearGradient>
 </defs>
 <g>
  <title>Layer 1</title>
  <rect class="st0" width="900" height="563" fill="url(#SVGID_1_)" id="svg_1"/>
  <g>
   <title>Ganache</title>
   <g>
    <path fill="#E4A663" d="m587.2016,397.3658c4.54577,0 6.11538,-1.06 8.27615,-4.74961c2.16077,-3.68961 1.12115,-9.68268 1.03961,-11.31344c-0.20385,-3.58768 -1.40655,-7.58305 -1.56961,-9.58075c0,-1.22306 0,-9.03037 0.18345,-12.23075c2.73154,-50.63527 24.46149,-62.68255 30.73994,-64.04833c4.00431,-1.18026 8.29853,-0.8911 12.10845,0.81539l0,-77.46138l0,0l0,-1.10077l0,-20.54765c0,-11.19113 -7.95,-24.95072 -17.65305,-30.57686l-158.7143,-91.73058c-9.78459,-5.66691 -25.74571,-5.66691 -35.36723,-0.06116l-158.5512,91.60827c-9.68268,5.60575 -17.63266,19.36534 -17.61227,30.57686l0,20.01766c-0.00811,0.11525 -0.00811,0.23127 0,0.34653l0,29.23148c0.9173,0.50961 1.8346,1.03961 2.75192,1.61038c3.07807,2.03846 6.11537,3.15961 9.21382,5.29999c8.82924,5.38026 17.03338,11.7248 24.46149,18.91688c1.4473,1.38615 6.27845,7.46076 7.41998,8.88767c3.50851,4.83487 7.45239,9.33828 11.78229,13.45382c2.39211,2.18114 5.02515,4.08238 7.84806,5.66691c4.66806,2.42576 12.37344,1.87539 16.30766,0.1427c30.20994,-13.08689 49.16759,-6.52307 57.91258,-1.26385c21.62803,12.98498 28.84416,31.14762 31.14762,53.20374c0.30244,2.85679 0.39782,5.73173 0.28539,8.60228c0,5.23885 -0.18347,13.65768 5.34074,15.06421c7.9296,2.03846 9.84576,-6.44153 11.02807,-12.06766c2.67038,-12.74036 19.63034,-21.09803 32.04454,-14.67689c8.56152,4.42344 12.06766,6.93074 20.52726,3.20036c10.57959,-4.66806 16.04266,-16.55226 19.73227,-22.87148c3.64511,-6.15289 8.92261,-11.1764 15.24766,-14.51382c16.51151,-10.2942 58.0145,-7.62384 59.52296,38.11915c0,2.48691 0,8.8469 0,12.71997c0,4.3623 0.1427,8.62268 -0.1427,13.12766c-0.18347,2.99654 -0.71345,6.11538 -0.99884,9.19345c-0.08154,0 -1.63077,8.94883 5.68729,8.9896z"/>
    <path fill="#5E464D" d="m637.9388,296.33986c-1.12114,-0.34655 -4.38267,-2.48693 -12.06766,-0.81539c-6.29883,1.36578 -28.0084,13.41305 -30.73994,64.04833c-0.16307,3.11884 -0.26499,10.92614 -0.18345,12.23075c0.16307,2.03846 1.36576,5.99307 1.56961,9.58075c0,1.63077 1.24345,7.5423 -1.03961,11.31344c-2.28308,3.77115 -3.73038,4.76999 -8.27615,4.74961c-7.31806,0 -5.76883,-8.9896 -5.76883,-8.9896c0.28539,-3.03731 0.81539,-6.11538 0.99884,-9.19345c0.28539,-4.50498 0.1427,-8.76536 0.1427,-13.12766c0,-3.87307 0,-10.19229 0,-12.71997c-1.50846,-45.74299 -43.01145,-48.41337 -59.52296,-38.11915c-6.32505,3.33742 -11.60255,8.36093 -15.24766,14.51381c-3.68961,6.31923 -9.15268,18.20343 -19.73226,22.87149c-8.4596,3.73038 -11.96575,1.22308 -20.52728,-3.20038c-12.4142,-6.42113 -29.37416,1.93654 -32.04454,14.6769c-1.18231,5.62614 -3.09845,14.08573 -11.02805,12.06766c-5.52423,-1.40653 -5.34076,-9.82537 -5.34076,-15.06421c0.11243,-2.87056 0.01707,-5.74549 -0.28539,-8.60229c-2.30345,-22.0561 -9.5196,-40.21876 -31.14762,-53.20373c-8.74497,-5.25922 -27.70264,-11.82306 -57.91258,1.26385c-4.07691,1.73268 -11.70075,2.28306 -16.30766,-0.1427c-2.82291,-1.58453 -5.45595,-3.48577 -7.84806,-5.66691c-4.32988,-4.11554 -8.27378,-8.61895 -11.78229,-13.45382c-1.14154,-1.42692 -5.97268,-7.50153 -7.41998,-8.88767c-7.42809,-7.19208 -15.63225,-13.53662 -24.46149,-18.91688c-3.09845,-2.03847 -6.11537,-3.34307 -9.21382,-5.3c-0.9173,-0.57075 -1.83462,-1.10077 -2.75192,-1.61037l0,133.66164c0,11.21152 7.94998,24.9711 17.65305,30.57686l158.71428,91.73058c9.70306,5.62615 25.58264,5.62615 35.28569,0l158.73468,-91.60827c9.70305,-5.60575 17.63264,-19.36534 17.61231,-30.57686l-0.0612,-84.08636z"/>
    <path fill="#FFFFFF" d="m464.16033,273.87605c-10.96691,6.3396 -28.92572,6.3396 -39.89261,0l-162.30198,-85.6152c1.83462,1.81422 164.58505,96.35788 164.58505,96.35788c9.70305,5.62614 25.58263,5.62614 35.28569,0c0,0 162.5262,-94.25827 164.36082,-96.0725l-162.03697,85.32982z"/>
    <path fill="#FFFFFF" d="m424.00271,87.05144c10.9873,-6.27845 28.92572,-6.27845 39.913,0.02039l19.67112,8.15382c-1.83462,-1.81422 -21.97458,-14.86035 -21.97458,-14.86035c-9.70305,-5.60575 -25.56224,-5.62614 -35.26531,0c0,0 -32.16685,18.89651 -33.98109,20.69034l31.63685,-14.00419z"/>
   </g>
  </g>
 </g>
</svg>